# xmcd
#
# Track frame offsets: 
#        150
#        20350
#        34808
#        56836
#        74244
#        91212
#        108963
#        126784
#        143669
#        159410
#        173469
#
# Disc length: 2613 seconds
#
# Revision: 0
# Processed by: cddbd v1.5.2PL0 Copyright (c) Steve Scherf et al.
# Submitted via: ExactAudioCopy v1.3
#
DISCID=8f0a330b
DTITLE=Hamish Anderson - Out Of My Head
DYEAR=2018
DGENRE=Blues
TTITLE0=No Good
TTITLE1=Breaking Down
TTITLE2=What You Do To Me
TTITLE3=You Give Me Something
TTITLE4=Out Of My Head
TTITLE5=The Fall
TTITLE6=Damaged Goods
TTITLE7=World´s Gone Mad
TTITLE8=Happy Again
TTITLE9=You really Know What Love Is
TTITLE10=Dark Eyes
EXTD=
EXTT0=
EXTT1=
EXTT2=
EXTT3=
EXTT4=
EXTT5=
EXTT6=
EXTT7=
EXTT8=
EXTT9=
EXTT10=
PLAYORDER=
